<?xml version="1.0" standalone="no"?>
<!DOCTYPE svg PUBLIC "-//W3C//DTD SVG 20010904//EN"
 "http://www.w3.org/TR/2001/REC-SVG-20010904/DTD/svg10.dtd">
<svg version="1.0" xmlns="http://www.w3.org/2000/svg"
 width="512.000000pt" height="512.000000pt" viewBox="0 0 512.000000 512.000000"
 preserveAspectRatio="xMidYMid meet">
<metadata>
Created by potrace 1.11, written by Peter Selinger 2001-2013
</metadata>
<g transform="translate(0.000000,512.000000) scale(0.100000,-0.100000)"
fill="#000000" stroke="none">
<path d="M0 2560 l0 -2560 2560 0 2560 0 0 2560 0 2560 -2560 0 -2560 0 0
-2560z m2921 1846 c213 -40 393 -129 507 -251 130 -139 164 -308 91 -454 -48
-97 -152 -156 -295 -168 l-71 -6 -6 89 c-12 179 -63 302 -166 404 -116 115
-220 154 -411 154 -199 -1 -337 -50 -451 -164 -116 -114 -159 -231 -159 -431
0 -202 50 -338 170 -460 113 -115 248 -193 585 -339 586 -253 829 -450 936
-763 88 -256 58 -586 -72 -807 -59 -100 -73 -118 -146 -193 -217 -220 -558
-337 -988 -337 -638 0 -1016 262 -1019 705 -1 125 20 183 94 256 47 47 68 61
124 78 38 12 85 21 106 21 41 0 50 -13 50 -78 0 -59 40 -234 71 -312 66 -165
182 -295 324 -361 105 -49 200 -64 358 -56 222 11 368 68 493 192 118 117 164
242 164 450 0 358 -163 526 -755 781 -88 37 -211 94 -273 126 -399 203 -606
440 -679 778 -27 126 -24 376 5 485 125 463 579 719 1212 684 63 -4 154 -14
201 -23z"/>
</g>
</svg>
